<?xml version="1.0" encoding="iso-8859-1"?>
<!-- Generator: Adobe Illustrator 19.0.0, SVG Export Plug-In . SVG Version: 6.00 Build 0)  -->
<svg version="1.1" id="Layer_1" xmlns="http://www.w3.org/2000/svg" xmlns:xlink="http://www.w3.org/1999/xlink" x="0px" y="0px"
	 viewBox="0 0 512 512" style="enable-background:new 0 0 512 512;" xml:space="preserve">
<g>
	<g>
		<path d="M501.801,407.672h-20.398V117.264c0-5.632-4.567-10.199-10.199-10.199h-63.347c-5.632,0-10.199,4.567-10.199,10.199
			v290.408h-25.274V277.659c0-5.632-4.567-10.199-10.199-10.199h-63.347c-5.632,0-10.199,4.567-10.199,10.199v130.013h-45.784
			V184.846c0-5.632-4.567-10.199-10.199-10.199h-63.347c-5.632,0-10.199,4.567-10.199,10.199v222.826h-26.406v-170.81
			c0-5.632-4.567-10.199-10.199-10.199H59.155c-5.632,0-10.199,4.567-10.199,10.199v170.81H20.398V94.128
			c0-5.632-4.567-10.199-10.199-10.199C4.567,83.929,0,88.496,0,94.128v323.743c0,5.632,4.567,10.199,10.199,10.199h491.602v0
			c5.632,0,10.199-4.567,10.199-10.199C512,412.24,507.433,407.672,501.801,407.672z M69.355,247.062h31.471l-31.471,31.472V247.062
			z M112.303,407.672H79.216l33.087-33.087V407.672z M112.303,345.737l-42.949,42.949v-26.227l42.949-42.949V345.737z
			 M112.303,290.66l-42.949,42.95v-26.227l42.949-42.949V290.66z M222.455,407.672h-42.949V195.045h42.949V407.672z
			 M309.036,287.859h40.65l-40.65,40.651V287.859z M309.036,357.359l42.949-42.949v26.227l-42.949,42.949V357.359z M351.985,407.672
			h-38.187l38.187-38.187V407.672z M461.004,407.672h-42.949V127.463h42.949V407.672z"/>
	</g>
</g>
<g>
</g>
<g>
</g>
<g>
</g>
<g>
</g>
<g>
</g>
<g>
</g>
<g>
</g>
<g>
</g>
<g>
</g>
<g>
</g>
<g>
</g>
<g>
</g>
<g>
</g>
<g>
</g>
<g>
</g>
</svg>
